<svg xmlns="http://www.w3.org/2000/svg" width="1024" height="1024" viewBox="0 0 1024 1024">
  <path id="element-01" d="M 178.49 623.75 C178.16,624.70 172.58,625.00 155.09,625.00 C142.46,625.00 131.93,624.66 131.69,624.25 C131.46,623.84 131.65,619.90 132.11,615.50 C133.69,600.58 136.60,570.84 144.02,494.00 C145.11,482.73 147.10,462.25 148.45,448.50 C149.80,434.75 151.40,417.65 152.01,410.50 C152.63,403.35 153.53,394.35 154.03,390.50 C154.53,386.65 154.95,382.94 154.97,382.25 C154.99,381.27 163.95,381.00 196.35,381.00 L 237.70 381.00 L 238.88 394.25 C239.53,401.54 241.17,418.98 242.53,433.00 C243.89,447.02 245.69,465.70 246.53,474.50 C247.37,483.30 249.18,502.20 250.55,516.50 C251.92,530.80 253.96,552.17 255.08,564.00 C256.20,575.83 257.91,593.83 258.89,604.00 C260.03,615.88 260.32,622.95 259.71,623.75 C259.00,624.68 253.21,625.00 236.90,625.00 L 215.04 625.00 L 214.56 622.75 C214.30,621.51 213.56,613.30 212.93,604.50 C212.29,595.70 211.35,587.70 210.84,586.72 C210.00,585.13 208.46,584.97 195.70,585.22 L 181.50 585.50 L 180.20 604.00 C179.49,614.17 178.72,623.06 178.49,623.75 ZM 496.57 624.23 C489.60,626.10 466.38,627.44 459.50,626.37 C442.40,623.71 428.96,614.76 422.28,601.57 C413.69,584.61 412.82,576.06 413.24,511.94 C413.54,465.45 413.78,458.82 415.34,453.50 C422.88,427.82 442.88,414.80 475.00,414.65 C507.95,414.50 527.66,427.91 533.51,454.46 C534.77,460.17 535.01,467.45 534.78,493.00 L 534.50 524.50 L 463.00 525.03 L 463.01 550.26 C463.01,565.37 463.45,577.07 464.10,579.42 C466.48,588.00 474.43,591.60 480.49,586.83 C485.24,583.09 486.00,579.64 486.00,561.66 L 486.00 545.25 L 489.12 544.62 C493.88,543.67 532.31,543.91 533.87,544.90 C534.98,545.60 535.14,548.84 534.72,561.63 C534.11,579.86 532.46,588.39 527.55,598.74 C521.25,612.00 511.16,620.30 496.57,624.23 ZM 356.95 624.59 C349.28,626.72 328.22,627.29 319.50,625.60 C294.01,620.65 281.26,607.20 275.30,579.00 C273.71,571.48 273.50,564.92 273.53,522.00 C273.55,479.78 273.79,472.27 275.34,464.00 C280.61,435.87 291.38,422.66 313.50,417.18 C324.42,414.47 335.95,413.69 346.16,414.96 C367.42,417.60 383.67,427.23 391.28,441.70 C396.12,450.92 397.14,457.99 396.79,480.00 L 396.50 498.50 L 371.75 498.77 L 347.00 499.03 L 346.96 482.77 C346.93,473.82 346.52,464.49 346.05,462.03 C344.88,455.98 341.37,453.00 335.38,453.00 C329.76,453.00 327.50,454.18 325.26,458.28 C323.65,461.22 323.48,466.21 323.21,516.40 C322.89,576.14 323.15,579.81 327.96,584.96 C333.60,591.00 343.22,587.89 345.82,579.19 C346.55,576.76 347.00,567.79 347.00,555.63 L 347.00 536.00 L 397.00 536.00 L 396.98 557.25 C396.96,588.84 394.48,597.59 382.01,610.05 C374.99,617.07 366.72,621.87 356.95,624.59 ZM 185.61 546.18 C185.89,546.63 190.61,547.00 196.09,547.00 C204.13,547.00 206.18,546.70 206.65,545.46 C207.33,543.69 204.14,503.73 197.32,428.75 C196.90,424.04 196.30,422.00 195.35,422.00 C194.57,422.00 194.00,423.07 194.00,424.53 C194.00,425.92 193.32,435.93 192.49,446.78 C191.66,457.62 190.31,475.73 189.48,487.00 C188.66,498.27 187.33,516.02 186.54,526.43 C185.75,536.84 185.33,545.72 185.61,546.18 ZM 462.36 499.49 C462.87,500.82 464.73,501.02 474.23,500.78 L 485.50 500.50 L 485.77 483.09 C486.10,462.19 484.89,456.16 479.71,452.91 C475.97,450.57 470.88,450.91 467.74,453.71 C463.57,457.41 462.69,461.65 462.21,480.21 C461.96,489.95 462.03,498.62 462.36,499.49 Z" fill="rgb(1,1,1)"/>
</svg>
