<svg xmlns="http://www.w3.org/2000/svg" width="1024" height="1024" viewBox="0 0 1024 1024">
  <path id="element-02" d="M 951.77 263.19 C951.28,264.65 949.61,265.28 948.69,264.35 C947.38,263.05 948.01,262.00 950.08,262.00 C951.25,262.00 951.99,262.52 951.77,263.19 ZM 894.36 291.50 C894.05,292.33 893.16,293.00 892.39,293.00 C891.63,293.00 891.00,292.33 891.00,291.50 C891.00,290.67 891.89,290.00 892.97,290.00 C894.31,290.00 894.75,290.48 894.36,291.50 ZM 940.78 401.15 C940.54,401.89 939.53,402.66 938.55,402.85 C937.41,403.07 936.93,402.71 937.22,401.85 C937.46,401.11 938.47,400.34 939.45,400.15 C940.59,399.93 941.07,400.29 940.78,401.15 ZM 936.00 395.50 C936.00,396.33 935.33,397.00 934.50,397.00 C933.67,397.00 933.00,396.33 933.00,395.50 C933.00,394.67 933.67,394.00 934.50,394.00 C935.33,394.00 936.00,394.67 936.00,395.50 Z" fill="rgb(167,167,167)"/>
</svg>
